<svg xmlns="http://www.w3.org/2000/svg" xmlns:xlink="http://www.w3.org/1999/xlink" viewBox="0,0,256,256" width="50px" height="50px" fill-rule="nonzero"><g fill="#e53636" fill-rule="nonzero" stroke="none" stroke-width="1" stroke-linecap="butt" stroke-linejoin="miter" stroke-miterlimit="10" stroke-dasharray="" stroke-dashoffset="0" font-family="none" font-weight="none" font-size="none" text-anchor="none" style="mix-blend-mode: normal"><g transform="scale(5.12,5.12)"><path d="M20.86328,1c-0.85547,0 -1.26172,0.42188 -1.82422,0.89844c-0.5625,0.47266 -1.18359,1.10547 -1.85547,1.86328c-1.34766,1.51563 -2.90234,3.53125 -4.38672,5.63281c-1.48828,2.10156 -2.90625,4.28516 -3.96094,6.14063c-0.53125,0.92969 -0.96875,1.77344 -1.28906,2.50391c-0.32031,0.73047 -0.54687,1.29297 -0.54687,1.96094c0,1.21484 0.37891,2.33984 1.00781,3.28516c0.01953,0.33594 0.22266,4.17188 -0.13281,8.88672c-0.375,4.92578 -1.48047,10.56641 -3.67969,13.1875c-0.24609,0.26953 -0.32422,0.65234 -0.20312,0.99609c0.12109,0.34766 0.42187,0.59766 0.78125,0.65625c0.36328,0.05859 0.72656,-0.08203 0.95313,-0.37109c2.83984,-3.37891 3.75391,-9.23828 4.14063,-14.3125c0.23047,-3.01953 0.23047,-5.39062 0.19531,-7.125c0.67578,0.38672 1.42969,0.65625 2.23438,0.75c1.0625,10.61719 4.97656,17.70313 10.35547,20.90234c0.15234,0.08984 0.32813,0.14063 0.50781,0.14063h3.67969c0.17969,0 0.35547,-0.04687 0.50781,-0.14062c5.37891,-3.19922 9.29297,-10.28516 10.35547,-20.90234c0.80469,-0.09375 1.55469,-0.36328 2.23438,-0.75c-0.03516,1.73438 -0.03516,4.10547 0.19531,7.125c0.38672,5.07422 1.30078,10.93359 4.14453,14.3125c0.22266,0.28906 0.58594,0.42969 0.94922,0.37109c0.35938,-0.05859 0.66016,-0.30859 0.78125,-0.65625c0.12109,-0.34375 0.04297,-0.72656 -0.19922,-0.99609c-2.20312,-2.62109 -3.30859,-8.26172 -3.68359,-13.1875c-0.35547,-4.71484 -0.15234,-8.55078 -0.13281,-8.88672c0.62891,-0.94531 1.00781,-2.07031 1.00781,-3.28516c0,-0.66797 -0.22656,-1.23047 -0.54687,-1.96094c-0.32031,-0.73047 -0.75781,-1.57422 -1.28516,-2.50391c-1.05859,-1.85547 -2.47656,-4.03906 -3.96484,-6.14062c-1.48437,-2.10156 -3.03906,-4.11719 -4.38672,-5.63281c-0.67187,-0.75781 -1.29297,-1.39062 -1.85547,-1.86328c-0.5625,-0.47656 -0.96875,-0.89844 -1.82422,-0.89844c-0.85156,0 -1.55078,0.3125 -2.24219,0.55469c-0.69141,0.24609 -1.35156,0.44531 -1.89453,0.44531c-0.54297,0 -1.20312,-0.19922 -1.89453,-0.44531c-0.69141,-0.24219 -1.39062,-0.55469 -2.24219,-0.55469zM20.96094,3.01953c0.27734,0.02734 0.81641,0.1875 1.47656,0.42578c0.72266,0.25391 1.58203,0.55469 2.5625,0.55469c0.98047,0 1.83984,-0.30078 2.5625,-0.55469c0.66016,-0.23828 1.19922,-0.39844 1.47656,-0.42578c0.02344,0.03516 0.3125,0.13672 0.63281,0.40625c0.44141,0.37109 1.01172,0.95312 1.64844,1.66797c1.26953,1.42578 2.79688,3.39844 4.25391,5.45313c1.45313,2.05859 2.84375,4.20313 3.85547,5.98047c0.50781,0.88672 0.91797,1.68359 1.19141,2.3125c0.27344,0.625 0.37891,1.14063 0.37891,1.16016c0,1.89844 -1.34375,3.5 -3.13281,3.89844c0.07813,-1.23437 0.12891,-2.50391 0.12891,-3.82812c0,-0.02344 0.00391,-0.05078 0.00391,-0.07422c0,0 0,-0.00391 0,-0.00781c-0.00391,-0.03125 -0.00391,-0.0625 -0.00781,-0.09375c-0.00391,-0.02344 -0.00391,-0.04687 -0.00781,-0.06641c-0.00391,-0.01562 -0.00781,-0.03125 -0.01172,-0.04687c0,-0.00391 0,-0.00781 0,-0.01172c-0.00391,-0.01172 -0.00781,-0.02734 -0.01172,-0.03906c-0.00391,-0.01953 -0.01172,-0.03906 -0.01562,-0.05469c-0.00391,-0.01562 -0.01172,-0.03125 -0.01953,-0.04687c0,0 0,0 0,-0.00391c-0.00391,-0.01172 -0.01172,-0.02734 -0.01953,-0.04297c-0.02734,-0.07031 -1.02344,-2.55078 -2.66016,-5.44922c-1.66016,-2.9375 -3.91406,-6.29688 -6.73047,-7.99219c-0.29297,-0.17187 -0.65625,-0.1875 -0.96484,-0.03516c-1.75781,0.87891 -3.34375,0.87891 -5.10156,0c-0.15234,-0.07422 -0.32031,-0.11328 -0.48437,-0.10547c-0.17187,0.00781 -0.33594,0.05469 -0.48047,0.14063c-2.81641,1.69531 -5.07031,5.05469 -6.73047,7.99219c-1.61719,2.85937 -2.58984,5.27344 -2.64453,5.40625v0.00391c0,0.00391 -0.03516,0.08594 -0.03516,0.08594c-0.01562,0.03125 -0.02734,0.0625 -0.03516,0.09375c0,0 0,0.00391 -0.00391,0.00781c-0.02344,0.08594 -0.03516,0.17578 -0.03516,0.26563c0,1.35156 0.05078,2.64063 0.12891,3.90234c-1.78516,-0.40234 -3.12891,-2 -3.12891,-3.89844c0,-0.01953 0.10547,-0.53516 0.37891,-1.16016c0.27344,-0.62891 0.68359,-1.42578 1.19141,-2.3125c1.01172,-1.77734 2.40234,-3.92187 3.85547,-5.98047c1.45703,-2.05469 2.98438,-4.02734 4.25391,-5.45312c0.63672,-0.71484 1.20703,-1.29687 1.64844,-1.66797c0.32031,-0.26953 0.60938,-0.37109 0.63281,-0.40625zM22.28516,8.07422c1.78906,0.69141 3.64063,0.69141 5.42969,0c2.10547,1.38281 4.25391,4.33203 5.78906,7.04297c1.17188,2.07422 1.53906,3.04297 1.89844,3.87891h-20.80469c0.35938,-0.83594 0.72656,-1.80469 1.89844,-3.87891c1.53516,-2.71094 3.68359,-5.66016 5.78906,-7.04297zM25,12.99609c-1.10547,0 -2,0.89453 -2,2c0,1.10547 0.89453,2 2,2c1.10547,0 2,-0.89453 2,-2c0,-1.10547 -0.89453,-2 -2,-2zM15.79297,21h18.41406c-0.42578,0.30078 -1.02344,0.61328 -1.76953,0.88672c-1.83984,0.66797 -4.5,1.10938 -7.4375,1.10938c-2.9375,0 -5.59766,-0.44141 -7.4375,-1.10937c-0.74609,-0.27344 -1.34375,-0.58594 -1.76953,-0.88672zM14.125,22.22266c0.03125,0.03125 0.05859,0.0625 0.08984,0.08984c0.23438,0.20313 0.50781,0.39063 0.79297,0.56641c0.10156,0.93359 0.35938,1.92578 0.80469,2.82031c0.58984,1.17578 1.64453,2.30078 3.14453,2.30078c1.16797,0 2.34375,-0.27344 3.30859,-0.91797c0.72266,-0.48047 1.3125,-1.22266 1.5625,-2.12891c0.39063,0.01563 0.76953,0.04297 1.17188,0.04297c0.73438,0 1.44531,-0.02734 2.14063,-0.07422c0.51172,1.37891 2.15625,2.07813 3.81641,2.07813c1.53906,0 2.48047,-1.77344 2.83594,-3.50391c0.77734,-0.33203 1.45313,-0.71875 1.99219,-1.18359c0.03125,-0.02734 0.05469,-0.05859 0.08594,-0.08594c-0.11328,3.05469 -0.45312,5.82031 -0.97656,8.30469l-1.875,1.25391l-6.4375,-4.59766c-0.16797,-0.12109 -0.375,-0.1875 -0.58203,-0.1875h-2c-0.20703,0 -0.41406,0.06641 -0.58203,0.1875l-6.4375,4.59766l-1.87891,-1.25391c-0.51953,-2.48437 -0.85937,-5.25 -0.97656,-8.30859zM17.26172,23.87891c1.29688,0.43359 2.82422,0.75 4.50391,0.92969c-0.13281,0.23438 -0.33594,0.42578 -0.60937,0.60938c-0.53906,0.35547 -1.36328,0.58203 -2.19922,0.58203c-0.5,0 -0.94141,-0.375 -1.35156,-1.19922c-0.14062,-0.27344 -0.25,-0.59375 -0.34375,-0.92187zM24.32031,29h1.35938l6.73828,4.8125c0.33984,0.24219 0.78906,0.25 1.13672,0.01953l0.61328,-0.41016c-0.35156,1.19141 -0.74609,2.30469 -1.1875,3.33203l-6.39844,-4.56641c-0.16797,-0.12109 -0.375,-0.1875 -0.58203,-0.1875h-2c-0.20703,0 -0.41406,0.06641 -0.58203,0.1875l-6.39844,4.56641c-0.44141,-1.02734 -0.83594,-2.14062 -1.1875,-3.33203l0.61328,0.41016c0.34766,0.23047 0.79688,0.22266 1.13672,-0.01953zM24.32031,34h1.35938l6.42578,4.59375c-0.78906,1.49219 -1.67578,2.77344 -2.63672,3.84766l-1.91406,-1.27344c-0.16406,-0.10937 -0.35547,-0.16797 -0.55469,-0.16797h-4c-0.19922,0 -0.39062,0.05859 -0.55469,0.16797l-1.91406,1.27344c-0.96094,-1.07422 -1.85156,-2.35547 -2.64062,-3.84766zM21,38c-0.35937,-0.00391 -0.69531,0.18359 -0.87891,0.49609c-0.17969,0.3125 -0.17969,0.69531 0,1.00781c0.18359,0.3125 0.51953,0.5 0.87891,0.49609h8c0.35938,0.00391 0.69531,-0.18359 0.87891,-0.49609c0.17969,-0.3125 0.17969,-0.69531 0,-1.00781c-0.18359,-0.3125 -0.51953,-0.5 -0.87891,-0.49609zM23.30078,43h3.39844l1.30469,0.875c-0.49219,0.41797 -1,0.80078 -1.51953,1.12109h-2.96875c-0.52344,-0.32031 -1.02734,-0.70312 -1.52344,-1.12109z"></path></g></g></svg>